<?xml version="1.0" encoding="UTF-8"?>
<svg xmlns="http://www.w3.org/2000/svg" xmlns:xlink="http://www.w3.org/1999/xlink" width="37.5pt" height="39.749999pt" viewBox="0 0 37.5 39.749999" version="1.2">
<defs>
<clipPath id="clip1">
  <path d="M 2.269531 1.523438 L 33.769531 1.523438 L 33.769531 38.273438 L 2.269531 38.273438 Z M 2.269531 1.523438 "/>
</clipPath>
</defs>
<g id="surface1">
<g clip-path="url(#clip1)" clip-rule="nonzero">
<path style=" stroke:none;fill-rule:nonzero;fill:rgb(32.159424%,44.309998%,100%);fill-opacity:1;" d="M 3.207031 36.476562 L 32.828125 36.476562 L 32.828125 37.332031 L 3.207031 37.332031 Z M 5.082031 18.957031 L 5.082031 9.863281 L 17.238281 9.863281 L 17.238281 17.347656 L 11.160156 17.347656 C 10.902344 17.347656 10.691406 17.554688 10.691406 17.8125 L 10.691406 35.542969 L 8.378906 35.542969 Z M 15.695312 2.464844 L 29.703125 2.464844 L 29.703125 3.386719 L 20.507812 3.386719 C 20.25 3.386719 20.039062 3.597656 20.039062 3.855469 L 20.039062 10.703125 C 20.039062 10.960938 20.25 11.171875 20.507812 11.171875 L 29.703125 11.171875 L 29.703125 12.121094 L 18.179688 12.121094 L 18.179688 9.398438 C 18.179688 9.140625 17.96875 8.933594 17.707031 8.933594 L 15.695312 8.933594 Z M 29.703125 4.800781 L 25.0625 8.132812 C 24.855469 8.285156 24.808594 8.578125 24.957031 8.785156 C 25.050781 8.910156 25.195312 8.976562 25.339844 8.976562 C 25.433594 8.976562 25.53125 8.949219 25.613281 8.890625 L 29.703125 5.949219 L 29.703125 10.238281 L 20.976562 10.238281 L 20.976562 7.523438 L 22.984375 5.988281 C 23.191406 5.828125 23.226562 5.539062 23.070312 5.332031 C 22.910156 5.128906 22.617188 5.09375 22.414062 5.25 L 20.976562 6.347656 L 20.976562 4.320312 L 29.703125 4.320312 Z M 21.132812 25.332031 L 21.132812 35.542969 L 11.628906 35.542969 L 11.628906 25.332031 Z M 22.625 24.398438 L 11.628906 24.398438 L 11.628906 18.277344 L 17.707031 18.277344 C 17.96875 18.277344 18.179688 18.070312 18.179688 17.8125 L 18.179688 13.054688 L 22.625 13.054688 Z M 31.285156 34.433594 L 31.285156 35.542969 L 25.984375 35.542969 L 25.984375 34.433594 Z M 24.851562 33.027344 L 23.414062 28.769531 L 24.75 28.324219 L 25.917969 31.789062 C 25.980469 31.976562 26.160156 32.105469 26.359375 32.105469 L 32.386719 32.105469 L 32.386719 33.503906 L 25.515625 33.503906 C 25.214844 33.503906 24.945312 33.3125 24.851562 33.027344 Z M 2.738281 38.261719 L 33.296875 38.261719 C 33.554688 38.261719 33.765625 38.054688 33.765625 37.796875 L 33.765625 36.011719 C 33.765625 35.753906 33.554688 35.542969 33.296875 35.542969 L 32.222656 35.542969 L 32.222656 34.433594 L 32.855469 34.433594 C 33.117188 34.433594 33.324219 34.226562 33.324219 33.96875 L 33.324219 31.640625 C 33.324219 31.382812 33.117188 31.171875 32.855469 31.171875 L 26.699219 31.171875 L 25.488281 27.589844 C 25.449219 27.472656 25.363281 27.375 25.253906 27.320312 C 25.144531 27.265625 25.015625 27.253906 24.894531 27.292969 L 22.671875 28.035156 C 22.429688 28.117188 22.296875 28.378906 22.378906 28.625 L 23.960938 33.320312 C 24.132812 33.832031 24.546875 34.214844 25.046875 34.363281 L 25.046875 35.542969 L 22.070312 35.542969 L 22.070312 25.332031 L 23.09375 25.332031 C 23.351562 25.332031 23.5625 25.121094 23.5625 24.863281 L 23.5625 13.054688 L 30.171875 13.054688 C 30.429688 13.054688 30.640625 12.84375 30.640625 12.585938 L 30.640625 2 C 30.640625 1.742188 30.429688 1.53125 30.171875 1.53125 L 15.226562 1.53125 C 14.96875 1.53125 14.757812 1.742188 14.757812 2 L 14.757812 8.933594 L 4.613281 8.933594 C 4.355469 8.933594 4.144531 9.140625 4.144531 9.398438 L 4.144531 19 C 4.144531 19.03125 4.148438 19.0625 4.152344 19.089844 L 7.421875 35.542969 L 2.738281 35.542969 C 2.476562 35.542969 2.269531 35.753906 2.269531 36.011719 L 2.269531 37.796875 C 2.269531 38.054688 2.476562 38.261719 2.738281 38.261719 "/>
</g>
<path style=" stroke:none;fill-rule:nonzero;fill:rgb(32.159424%,44.309998%,100%);fill-opacity:1;" d="M 14.851562 31.367188 L 14.851562 28.753906 C 14.851562 28.496094 14.640625 28.289062 14.382812 28.289062 L 12.851562 28.289062 L 12.851562 29.21875 L 13.914062 29.21875 L 13.914062 30.902344 L 12.851562 30.902344 L 12.851562 31.832031 L 14.382812 31.832031 C 14.640625 31.832031 14.851562 31.625 14.851562 31.367188 "/>
</g>
</svg>
