<?xml version="1.0" encoding="UTF-8"?>
<svg xmlns="http://www.w3.org/2000/svg" xmlns:xlink="http://www.w3.org/1999/xlink" width="37.5pt" height="39.749999pt" viewBox="0 0 37.5 39.749999" version="1.2">
<defs>
<clipPath id="clip1">
  <path d="M 1.875 3.886719 L 35.625 3.886719 L 35.625 36.136719 L 1.875 36.136719 Z M 1.875 3.886719 "/>
</clipPath>
</defs>
<g id="surface1">
<g clip-path="url(#clip1)" clip-rule="nonzero">
<path style=" stroke:none;fill-rule:nonzero;fill:rgb(32.159424%,44.309998%,100%);fill-opacity:1;" d="M 33.925781 35.027344 L 3.574219 35.027344 C 3.261719 35.027344 3.011719 34.777344 3.011719 34.46875 L 3.011719 9.449219 L 34.488281 9.449219 L 34.488281 34.46875 C 34.488281 34.777344 34.238281 35.027344 33.925781 35.027344 Z M 3.574219 5 L 33.925781 5 C 34.238281 5 34.488281 5.25 34.488281 5.554688 L 34.488281 8.335938 L 3.011719 8.335938 L 3.011719 5.554688 C 3.011719 5.25 3.261719 5 3.574219 5 Z M 33.925781 3.886719 L 3.574219 3.886719 C 2.644531 3.886719 1.886719 4.636719 1.886719 5.554688 L 1.886719 34.46875 C 1.886719 35.390625 2.644531 36.136719 3.574219 36.136719 L 33.925781 36.136719 C 34.855469 36.136719 35.613281 35.390625 35.613281 34.46875 L 35.613281 5.554688 C 35.613281 4.636719 34.855469 3.886719 33.925781 3.886719 "/>
</g>
<path style=" stroke:none;fill-rule:nonzero;fill:rgb(32.159424%,44.309998%,100%);fill-opacity:1;" d="M 9.195312 7.222656 C 9.503906 7.222656 9.757812 6.976562 9.757812 6.667969 C 9.757812 6.359375 9.503906 6.113281 9.195312 6.113281 C 8.882812 6.113281 8.632812 6.359375 8.632812 6.667969 C 8.632812 6.976562 8.882812 7.222656 9.195312 7.222656 "/>
<path style=" stroke:none;fill-rule:nonzero;fill:rgb(32.159424%,44.309998%,100%);fill-opacity:1;" d="M 6.945312 7.222656 C 7.257812 7.222656 7.507812 6.976562 7.507812 6.667969 C 7.507812 6.359375 7.257812 6.113281 6.945312 6.113281 C 6.636719 6.113281 6.382812 6.359375 6.382812 6.667969 C 6.382812 6.976562 6.636719 7.222656 6.945312 7.222656 "/>
<path style=" stroke:none;fill-rule:nonzero;fill:rgb(32.159424%,44.309998%,100%);fill-opacity:1;" d="M 4.699219 7.222656 C 5.007812 7.222656 5.257812 6.976562 5.257812 6.667969 C 5.257812 6.359375 5.007812 6.113281 4.699219 6.113281 C 4.386719 6.113281 4.136719 6.359375 4.136719 6.667969 C 4.136719 6.976562 4.386719 7.222656 4.699219 7.222656 "/>
<path style=" stroke:none;fill-rule:nonzero;fill:rgb(32.159424%,44.309998%,100%);fill-opacity:1;" d="M 12.003906 19.457031 L 11.707031 19.457031 L 9.0625 16.320312 C 8.957031 16.195312 8.800781 16.121094 8.632812 16.121094 C 8.464844 16.121094 8.308594 16.195312 8.199219 16.320312 L 6.382812 18.476562 L 6.382812 12.785156 L 12.003906 12.785156 Z M 7.023438 19.457031 L 8.632812 17.546875 L 10.242188 19.457031 Z M 12.566406 11.671875 L 5.820312 11.671875 C 5.511719 11.671875 5.257812 11.921875 5.257812 12.230469 L 5.257812 20.011719 C 5.257812 20.320312 5.511719 20.570312 5.820312 20.570312 L 12.566406 20.570312 C 12.878906 20.570312 13.128906 20.320312 13.128906 20.011719 L 13.128906 12.230469 C 13.128906 11.921875 12.878906 11.671875 12.566406 11.671875 "/>
<path style=" stroke:none;fill-rule:nonzero;fill:rgb(32.159424%,44.309998%,100%);fill-opacity:1;" d="M 21.558594 29.464844 L 21.308594 29.464844 L 18.664062 25.277344 C 18.5625 25.117188 18.382812 25.015625 18.1875 25.015625 C 17.992188 25.015625 17.8125 25.117188 17.710938 25.277344 L 15.941406 28.082031 L 15.941406 21.679688 L 21.558594 21.679688 Z M 16.390625 29.464844 L 18.1875 26.621094 L 19.984375 29.464844 Z M 22.121094 20.570312 L 15.378906 20.570312 C 15.066406 20.570312 14.816406 20.816406 14.816406 21.125 L 14.816406 30.023438 C 14.816406 30.328125 15.066406 30.578125 15.378906 30.578125 L 22.121094 30.578125 C 22.433594 30.578125 22.683594 30.328125 22.683594 30.023438 L 22.683594 21.125 C 22.683594 20.816406 22.433594 20.570312 22.121094 20.570312 "/>
<path style=" stroke:none;fill-rule:nonzero;fill:rgb(32.159424%,44.309998%,100%);fill-opacity:1;" d="M 5.820312 25.015625 L 8.070312 25.015625 C 8.378906 25.015625 8.632812 24.769531 8.632812 24.460938 C 8.632812 24.15625 8.378906 23.90625 8.070312 23.90625 L 5.820312 23.90625 C 5.511719 23.90625 5.257812 24.15625 5.257812 24.460938 C 5.257812 24.769531 5.511719 25.015625 5.820312 25.015625 "/>
<path style=" stroke:none;fill-rule:nonzero;fill:rgb(32.159424%,44.309998%,100%);fill-opacity:1;" d="M 12.566406 23.90625 L 10.320312 23.90625 C 10.007812 23.90625 9.757812 24.15625 9.757812 24.460938 C 9.757812 24.769531 10.007812 25.015625 10.320312 25.015625 L 12.566406 25.015625 C 12.878906 25.015625 13.128906 24.769531 13.128906 24.460938 C 13.128906 24.15625 12.878906 23.90625 12.566406 23.90625 "/>
<path style=" stroke:none;fill-rule:nonzero;fill:rgb(32.159424%,44.309998%,100%);fill-opacity:1;" d="M 10.320312 15.007812 C 10.628906 15.007812 10.878906 14.761719 10.878906 14.453125 C 10.878906 14.144531 10.628906 13.898438 10.320312 13.898438 C 10.007812 13.898438 9.757812 14.144531 9.757812 14.453125 C 9.757812 14.761719 10.007812 15.007812 10.320312 15.007812 "/>
<path style=" stroke:none;fill-rule:nonzero;fill:rgb(32.159424%,44.309998%,100%);fill-opacity:1;" d="M 18.75 23.90625 C 19.058594 23.90625 19.3125 23.65625 19.3125 23.347656 C 19.3125 23.042969 19.058594 22.792969 18.75 22.792969 C 18.441406 22.792969 18.1875 23.042969 18.1875 23.347656 C 18.1875 23.65625 18.441406 23.90625 18.75 23.90625 "/>
<path style=" stroke:none;fill-rule:nonzero;fill:rgb(32.159424%,44.309998%,100%);fill-opacity:1;" d="M 22.121094 31.691406 L 17.625 31.691406 C 17.316406 31.691406 17.0625 31.9375 17.0625 32.246094 C 17.0625 32.554688 17.316406 32.800781 17.625 32.800781 L 22.121094 32.800781 C 22.433594 32.800781 22.683594 32.554688 22.683594 32.246094 C 22.683594 31.9375 22.433594 31.691406 22.121094 31.691406 "/>
<path style=" stroke:none;fill-rule:nonzero;fill:rgb(32.159424%,44.309998%,100%);fill-opacity:1;" d="M 15.378906 31.691406 C 15.066406 31.691406 14.816406 31.9375 14.816406 32.246094 C 14.816406 32.554688 15.066406 32.800781 15.378906 32.800781 C 15.6875 32.800781 15.941406 32.554688 15.941406 32.246094 C 15.941406 31.9375 15.6875 31.691406 15.378906 31.691406 "/>
<path style=" stroke:none;fill-rule:nonzero;fill:rgb(32.159424%,44.309998%,100%);fill-opacity:1;" d="M 12.003906 31.691406 L 10.550781 31.691406 L 8.46875 29.628906 C 8.246094 29.410156 7.890625 29.410156 7.671875 29.628906 L 6.382812 30.902344 L 6.382812 27.242188 L 12.003906 27.242188 Z M 7.179688 31.691406 L 8.070312 30.808594 L 8.960938 31.691406 Z M 12.566406 26.128906 L 5.820312 26.128906 C 5.511719 26.128906 5.257812 26.378906 5.257812 26.6875 L 5.257812 32.246094 C 5.257812 32.554688 5.511719 32.800781 5.820312 32.800781 L 12.566406 32.800781 C 12.878906 32.800781 13.128906 32.554688 13.128906 32.246094 L 13.128906 26.6875 C 13.128906 26.378906 12.878906 26.128906 12.566406 26.128906 "/>
<path style=" stroke:none;fill-rule:nonzero;fill:rgb(32.159424%,44.309998%,100%);fill-opacity:1;" d="M 10.320312 29.464844 C 10.628906 29.464844 10.878906 29.214844 10.878906 28.910156 C 10.878906 28.601562 10.628906 28.355469 10.320312 28.355469 C 10.007812 28.355469 9.757812 28.601562 9.757812 28.910156 C 9.757812 29.214844 10.007812 29.464844 10.320312 29.464844 "/>
<path style=" stroke:none;fill-rule:nonzero;fill:rgb(32.159424%,44.309998%,100%);fill-opacity:1;" d="M 12.566406 21.679688 L 8.070312 21.679688 C 7.757812 21.679688 7.507812 21.929688 7.507812 22.238281 C 7.507812 22.542969 7.757812 22.792969 8.070312 22.792969 L 12.566406 22.792969 C 12.878906 22.792969 13.128906 22.542969 13.128906 22.238281 C 13.128906 21.929688 12.878906 21.679688 12.566406 21.679688 "/>
<path style=" stroke:none;fill-rule:nonzero;fill:rgb(32.159424%,44.309998%,100%);fill-opacity:1;" d="M 5.820312 22.792969 C 6.132812 22.792969 6.382812 22.542969 6.382812 22.238281 C 6.382812 21.929688 6.132812 21.679688 5.820312 21.679688 C 5.511719 21.679688 5.257812 21.929688 5.257812 22.238281 C 5.257812 22.542969 5.511719 22.792969 5.820312 22.792969 "/>
<path style=" stroke:none;fill-rule:nonzero;fill:rgb(32.159424%,44.309998%,100%);fill-opacity:1;" d="M 21.558594 13.898438 L 15.941406 13.898438 L 15.941406 12.785156 L 21.558594 12.785156 Z M 22.121094 11.671875 L 15.378906 11.671875 C 15.066406 11.671875 14.816406 11.921875 14.816406 12.230469 L 14.816406 14.453125 C 14.816406 14.761719 15.066406 15.007812 15.378906 15.007812 L 22.121094 15.007812 C 22.433594 15.007812 22.683594 14.761719 22.683594 14.453125 L 22.683594 12.230469 C 22.683594 11.921875 22.433594 11.671875 22.121094 11.671875 "/>
<path style=" stroke:none;fill-rule:nonzero;fill:rgb(32.159424%,44.309998%,100%);fill-opacity:1;" d="M 15.378906 19.457031 L 17.625 19.457031 C 17.9375 19.457031 18.1875 19.207031 18.1875 18.902344 C 18.1875 18.59375 17.9375 18.34375 17.625 18.34375 L 15.378906 18.34375 C 15.066406 18.34375 14.816406 18.59375 14.816406 18.902344 C 14.816406 19.207031 15.066406 19.457031 15.378906 19.457031 "/>
<path style=" stroke:none;fill-rule:nonzero;fill:rgb(32.159424%,44.309998%,100%);fill-opacity:1;" d="M 22.121094 18.34375 L 19.875 18.34375 C 19.5625 18.34375 19.3125 18.59375 19.3125 18.902344 C 19.3125 19.207031 19.5625 19.457031 19.875 19.457031 L 22.121094 19.457031 C 22.433594 19.457031 22.683594 19.207031 22.683594 18.902344 C 22.683594 18.59375 22.433594 18.34375 22.121094 18.34375 "/>
<path style=" stroke:none;fill-rule:nonzero;fill:rgb(32.159424%,44.309998%,100%);fill-opacity:1;" d="M 22.121094 16.121094 L 17.625 16.121094 C 17.316406 16.121094 17.0625 16.371094 17.0625 16.675781 C 17.0625 16.984375 17.316406 17.234375 17.625 17.234375 L 22.121094 17.234375 C 22.433594 17.234375 22.683594 16.984375 22.683594 16.675781 C 22.683594 16.371094 22.433594 16.121094 22.121094 16.121094 "/>
<path style=" stroke:none;fill-rule:nonzero;fill:rgb(32.159424%,44.309998%,100%);fill-opacity:1;" d="M 15.378906 17.234375 C 15.6875 17.234375 15.941406 16.984375 15.941406 16.675781 C 15.941406 16.371094 15.6875 16.121094 15.378906 16.121094 C 15.066406 16.121094 14.816406 16.371094 14.816406 16.675781 C 14.816406 16.984375 15.066406 17.234375 15.378906 17.234375 "/>
<path style=" stroke:none;fill-rule:nonzero;fill:rgb(32.159424%,44.309998%,100%);fill-opacity:1;" d="M 31.117188 17.234375 L 29.664062 17.234375 L 27.578125 15.171875 C 27.359375 14.953125 27.003906 14.953125 26.785156 15.171875 L 25.496094 16.445312 L 25.496094 12.785156 L 31.117188 12.785156 Z M 26.289062 17.234375 L 27.179688 16.351562 L 28.074219 17.234375 Z M 31.679688 11.671875 L 24.933594 11.671875 C 24.621094 11.671875 24.371094 11.921875 24.371094 12.230469 L 24.371094 17.789062 C 24.371094 18.097656 24.621094 18.34375 24.933594 18.34375 L 31.679688 18.34375 C 31.988281 18.34375 32.242188 18.097656 32.242188 17.789062 L 32.242188 12.230469 C 32.242188 11.921875 31.988281 11.671875 31.679688 11.671875 "/>
<path style=" stroke:none;fill-rule:nonzero;fill:rgb(32.159424%,44.309998%,100%);fill-opacity:1;" d="M 29.429688 15.007812 C 29.742188 15.007812 29.992188 14.761719 29.992188 14.453125 C 29.992188 14.144531 29.742188 13.898438 29.429688 13.898438 C 29.121094 13.898438 28.867188 14.144531 28.867188 14.453125 C 28.867188 14.761719 29.121094 15.007812 29.429688 15.007812 "/>
<path style=" stroke:none;fill-rule:nonzero;fill:rgb(32.159424%,44.309998%,100%);fill-opacity:1;" d="M 24.933594 22.792969 L 27.179688 22.792969 C 27.492188 22.792969 27.742188 22.542969 27.742188 22.238281 C 27.742188 21.929688 27.492188 21.679688 27.179688 21.679688 L 24.933594 21.679688 C 24.621094 21.679688 24.371094 21.929688 24.371094 22.238281 C 24.371094 22.542969 24.621094 22.792969 24.933594 22.792969 "/>
<path style=" stroke:none;fill-rule:nonzero;fill:rgb(32.159424%,44.309998%,100%);fill-opacity:1;" d="M 31.679688 21.679688 L 29.429688 21.679688 C 29.121094 21.679688 28.867188 21.929688 28.867188 22.238281 C 28.867188 22.542969 29.121094 22.792969 29.429688 22.792969 L 31.679688 22.792969 C 31.988281 22.792969 32.242188 22.542969 32.242188 22.238281 C 32.242188 21.929688 31.988281 21.679688 31.679688 21.679688 "/>
<path style=" stroke:none;fill-rule:nonzero;fill:rgb(32.159424%,44.309998%,100%);fill-opacity:1;" d="M 31.679688 19.457031 L 27.179688 19.457031 C 26.871094 19.457031 26.621094 19.707031 26.621094 20.011719 C 26.621094 20.320312 26.871094 20.570312 27.179688 20.570312 L 31.679688 20.570312 C 31.988281 20.570312 32.242188 20.320312 32.242188 20.011719 C 32.242188 19.707031 31.988281 19.457031 31.679688 19.457031 "/>
<path style=" stroke:none;fill-rule:nonzero;fill:rgb(32.159424%,44.309998%,100%);fill-opacity:1;" d="M 24.933594 20.570312 C 25.242188 20.570312 25.496094 20.320312 25.496094 20.011719 C 25.496094 19.707031 25.242188 19.457031 24.933594 19.457031 C 24.621094 19.457031 24.371094 19.707031 24.371094 20.011719 C 24.371094 20.320312 24.621094 20.570312 24.933594 20.570312 "/>
<path style=" stroke:none;fill-rule:nonzero;fill:rgb(32.159424%,44.309998%,100%);fill-opacity:1;" d="M 31.117188 31.691406 L 30.816406 31.691406 L 28.175781 28.554688 C 28.070312 28.425781 27.910156 28.355469 27.742188 28.355469 C 27.578125 28.355469 27.417969 28.425781 27.3125 28.554688 L 25.496094 30.710938 L 25.496094 25.015625 L 31.117188 25.015625 Z M 26.132812 31.691406 L 27.742188 29.777344 L 29.355469 31.691406 Z M 31.679688 23.90625 L 24.933594 23.90625 C 24.621094 23.90625 24.371094 24.15625 24.371094 24.460938 L 24.371094 32.246094 C 24.371094 32.554688 24.621094 32.800781 24.933594 32.800781 L 31.679688 32.800781 C 31.988281 32.800781 32.242188 32.554688 32.242188 32.246094 L 32.242188 24.460938 C 32.242188 24.15625 31.988281 23.90625 31.679688 23.90625 "/>
<path style=" stroke:none;fill-rule:nonzero;fill:rgb(32.159424%,44.309998%,100%);fill-opacity:1;" d="M 29.429688 27.242188 C 29.742188 27.242188 29.992188 26.992188 29.992188 26.6875 C 29.992188 26.378906 29.742188 26.128906 29.429688 26.128906 C 29.121094 26.128906 28.867188 26.378906 28.867188 26.6875 C 28.867188 26.992188 29.121094 27.242188 29.429688 27.242188 "/>
</g>
</svg>
