<?xml version="1.0" encoding="UTF-8"?>
<svg xmlns="http://www.w3.org/2000/svg" xmlns:xlink="http://www.w3.org/1999/xlink" width="37.5pt" height="39.749999pt" viewBox="0 0 37.5 39.749999" version="1.2">
<defs>
<clipPath id="clip1">
  <path d="M 0.523438 10.078125 L 37.007812 10.078125 L 37.007812 29.578125 L 0.523438 29.578125 Z M 0.523438 10.078125 "/>
</clipPath>
</defs>
<g id="surface1">
<g clip-path="url(#clip1)" clip-rule="nonzero">
<path style=" stroke:none;fill-rule:evenodd;fill:rgb(32.159424%,44.309998%,100%);fill-opacity:1;" d="M 36.832031 18.976562 C 34.433594 16.089844 31.625 13.851562 28.488281 12.320312 C 25.4375 10.835938 22.210938 10.078125 18.894531 10.078125 C 15.578125 10.078125 12.351562 10.835938 9.300781 12.320312 C 6.164062 13.855469 3.351562 16.089844 0.953125 18.976562 C 0.746094 19.226562 0.644531 19.511719 0.644531 19.828125 C 0.644531 20.148438 0.746094 20.433594 0.953125 20.679688 C 3.355469 23.570312 6.164062 25.808594 9.300781 27.335938 C 12.351562 28.824219 15.578125 29.578125 18.894531 29.578125 C 22.210938 29.578125 25.4375 28.824219 28.488281 27.335938 C 31.625 25.804688 34.433594 23.570312 36.832031 20.679688 C 37.039062 20.433594 37.144531 20.148438 37.144531 19.828125 C 37.144531 19.511719 37.039062 19.226562 36.832031 18.976562 Z M 18.894531 23.585938 C 18.382812 23.585938 17.890625 23.492188 17.417969 23.300781 C 16.945312 23.109375 16.527344 22.839844 16.164062 22.488281 C 15.804688 22.132812 15.523438 21.726562 15.328125 21.269531 C 15.132812 20.808594 15.035156 20.328125 15.035156 19.828125 C 15.035156 19.332031 15.132812 18.851562 15.328125 18.390625 C 15.523438 17.929688 15.804688 17.523438 16.164062 17.171875 C 16.527344 16.820312 16.945312 16.546875 17.417969 16.359375 C 17.890625 16.167969 18.382812 16.070312 18.894531 16.070312 C 19.40625 16.070312 19.898438 16.167969 20.371094 16.359375 C 20.84375 16.546875 21.261719 16.820312 21.625 17.171875 C 21.984375 17.523438 22.265625 17.929688 22.460938 18.390625 C 22.65625 18.851562 22.753906 19.332031 22.753906 19.828125 C 22.753906 20.328125 22.65625 20.808594 22.460938 21.269531 C 22.265625 21.726562 21.984375 22.132812 21.625 22.488281 C 21.261719 22.839844 20.84375 23.109375 20.371094 23.300781 C 19.898438 23.492188 19.40625 23.585938 18.894531 23.585938 Z M 3.851562 19.828125 C 6.480469 16.933594 9.585938 14.871094 12.9375 13.753906 C 12.515625 14.148438 12.140625 14.578125 11.804688 15.042969 C 11.472656 15.507812 11.191406 16.003906 10.964844 16.527344 C 10.734375 17.046875 10.558594 17.585938 10.445312 18.144531 C 10.328125 18.699219 10.269531 19.261719 10.269531 19.828125 C 10.269531 20.398438 10.328125 20.960938 10.445312 21.515625 C 10.558594 22.074219 10.734375 22.613281 10.964844 23.132812 C 11.191406 23.65625 11.472656 24.148438 11.804688 24.617188 C 12.140625 25.082031 12.515625 25.511719 12.9375 25.90625 C 9.585938 24.789062 6.484375 22.726562 3.851562 19.828125 Z M 24.847656 25.90625 C 25.269531 25.511719 25.648438 25.082031 25.980469 24.617188 C 26.3125 24.148438 26.59375 23.65625 26.824219 23.132812 C 27.054688 22.613281 27.226562 22.074219 27.34375 21.515625 C 27.460938 20.960938 27.519531 20.398438 27.519531 19.828125 C 27.519531 19.261719 27.460938 18.699219 27.34375 18.144531 C 27.226562 17.585938 27.054688 17.046875 26.824219 16.527344 C 26.59375 16.003906 26.3125 15.507812 25.980469 15.042969 C 25.648438 14.578125 25.269531 14.148438 24.847656 13.753906 C 28.203125 14.871094 31.304688 16.933594 33.9375 19.828125 C 31.304688 22.726562 28.203125 24.789062 24.847656 25.90625 Z M 24.847656 25.90625 "/>
</g>
</g>
</svg>
