<?xml version="1.0" encoding="UTF-8"?>
<svg xmlns="http://www.w3.org/2000/svg" xmlns:xlink="http://www.w3.org/1999/xlink" width="37.5pt" height="39.749999pt" viewBox="0 0 37.5 39.749999" version="1.2">
<defs>
<clipPath id="clip1">
  <path d="M 1.421875 3.269531 L 32 3.269531 L 32 37.019531 L 1.421875 37.019531 Z M 1.421875 3.269531 "/>
</clipPath>
<clipPath id="clip2">
  <path d="M 22 3.269531 L 33 3.269531 L 33 15 L 22 15 Z M 22 3.269531 "/>
</clipPath>
<clipPath id="clip3">
  <path d="M 22 23 L 35.921875 23 L 35.921875 37.019531 L 22 37.019531 Z M 22 23 "/>
</clipPath>
</defs>
<g id="surface1">
<g clip-path="url(#clip1)" clip-rule="nonzero">
<path style=" stroke:none;fill-rule:nonzero;fill:rgb(32.159424%,44.309998%,100%);fill-opacity:1;" d="M 30.738281 15.488281 L 24.992188 15.488281 C 24.628906 15.488281 24.28125 15.554688 23.945312 15.691406 C 23.609375 15.824219 23.308594 16.015625 23.046875 16.265625 C 22.78125 16.515625 22.570312 16.804688 22.414062 17.132812 C 22.257812 17.464844 22.167969 17.8125 22.140625 18.175781 L 18.671875 23.007812 C 18.667969 22.375 18.558594 21.765625 18.339844 21.175781 C 18.117188 20.585938 17.804688 20.054688 17.394531 19.578125 C 16.988281 19.105469 16.507812 18.714844 15.960938 18.414062 C 15.414062 18.117188 14.832031 17.921875 14.214844 17.832031 L 12.660156 17.308594 L 12.347656 16.996094 L 12.347656 15.335938 C 12.804688 15.015625 13.179688 14.613281 13.46875 14.132812 C 13.761719 13.652344 13.945312 13.136719 14.027344 12.578125 L 14.648438 12.578125 C 14.800781 12.578125 14.945312 12.546875 15.085938 12.488281 C 15.226562 12.429688 15.351562 12.347656 15.457031 12.238281 C 15.566406 12.128906 15.648438 12.003906 15.707031 11.859375 C 15.765625 11.71875 15.796875 11.570312 15.796875 11.414062 L 15.796875 10.832031 C 15.796875 10.679688 15.765625 10.53125 15.707031 10.386719 C 15.648438 10.246094 15.566406 10.121094 15.457031 10.011719 C 15.351562 9.902344 15.226562 9.816406 15.085938 9.757812 C 14.945312 9.699219 14.800781 9.667969 14.648438 9.667969 L 14.074219 9.667969 L 14.074219 9.507812 C 14.609375 9.128906 15.03125 8.644531 15.335938 8.054688 C 15.640625 7.46875 15.796875 6.839844 15.796875 6.175781 L 15.796875 3.851562 C 15.796875 3.6875 15.742188 3.550781 15.628906 3.4375 C 15.515625 3.324219 15.378906 3.269531 15.222656 3.269531 L 8.324219 3.269531 C 8.0625 3.269531 7.800781 3.292969 7.539062 3.347656 C 7.28125 3.398438 7.03125 3.476562 6.785156 3.578125 C 6.542969 3.683594 6.3125 3.808594 6.089844 3.957031 C 5.871094 4.105469 5.667969 4.273438 5.480469 4.460938 C 5.296875 4.652344 5.128906 4.855469 4.980469 5.078125 C 4.835938 5.300781 4.710938 5.535156 4.609375 5.785156 C 4.507812 6.03125 4.433594 6.285156 4.378906 6.546875 C 4.328125 6.808594 4.300781 7.074219 4.300781 7.339844 L 4.300781 8.503906 C 4.304688 9.035156 4.503906 9.472656 4.898438 9.820312 C 4.503906 10.039062 4.304688 10.375 4.300781 10.832031 L 4.300781 11.414062 C 4.304688 11.570312 4.332031 11.71875 4.390625 11.859375 C 4.449219 12.003906 4.53125 12.128906 4.640625 12.238281 C 4.746094 12.347656 4.871094 12.429688 5.011719 12.488281 C 5.152344 12.546875 5.300781 12.578125 5.453125 12.578125 L 6.074219 12.578125 C 6.152344 13.136719 6.335938 13.652344 6.628906 14.132812 C 6.921875 14.613281 7.292969 15.015625 7.75 15.335938 L 7.75 16.996094 L 7.441406 17.308594 L 5.882812 17.832031 C 5.261719 17.921875 4.675781 18.117188 4.125 18.421875 C 3.578125 18.722656 3.097656 19.117188 2.6875 19.59375 C 2.277344 20.074219 1.964844 20.613281 1.746094 21.207031 C 1.53125 21.804688 1.425781 22.417969 1.429688 23.050781 L 1.429688 36.4375 C 1.429688 36.597656 1.484375 36.734375 1.597656 36.847656 C 1.710938 36.960938 1.84375 37.019531 2.003906 37.019531 L 16.945312 37.019531 C 17.175781 37.015625 17.394531 36.972656 17.605469 36.882812 C 17.816406 36.796875 18.003906 36.667969 18.164062 36.503906 C 18.324219 36.34375 18.449219 36.152344 18.539062 35.941406 C 18.625 35.726562 18.667969 35.503906 18.671875 35.273438 L 18.671875 31.367188 L 26.457031 18.980469 L 28.441406 18.980469 C 28.820312 18.980469 29.1875 18.90625 29.539062 18.757812 C 29.890625 18.609375 30.203125 18.398438 30.472656 18.128906 C 30.742188 17.855469 30.949219 17.539062 31.09375 17.183594 C 31.242188 16.828125 31.3125 16.457031 31.3125 16.070312 C 31.3125 15.910156 31.257812 15.773438 31.144531 15.660156 C 31.035156 15.542969 30.898438 15.488281 30.738281 15.488281 Z M 14.648438 10.832031 L 14.648438 11.414062 L 14.074219 11.414062 L 14.074219 10.832031 Z M 6.027344 11.414062 L 5.453125 11.414062 L 5.453125 10.832031 L 6.027344 10.832031 Z M 6.34375 7.988281 C 6.128906 8.09375 6.027344 8.265625 6.027344 8.503906 L 6.027344 9.085938 C 5.867188 9.085938 5.730469 9.03125 5.621094 8.917969 C 5.507812 8.804688 5.453125 8.664062 5.453125 8.503906 L 5.453125 7.339844 C 5.453125 6.957031 5.523438 6.585938 5.671875 6.226562 C 5.816406 5.871094 6.023438 5.558594 6.292969 5.285156 C 6.5625 5.011719 6.875 4.800781 7.226562 4.652344 C 7.578125 4.503906 7.945312 4.433594 8.324219 4.433594 L 14.648438 4.433594 L 14.648438 6.175781 C 14.644531 6.917969 14.402344 7.5625 13.910156 8.109375 C 13.835938 8.027344 13.742188 7.972656 13.636719 7.941406 L 9.039062 6.777344 C 8.898438 6.742188 8.769531 6.757812 8.640625 6.824219 Z M 7.175781 11.996094 L 7.175781 8.867188 L 8.96875 7.957031 L 12.921875 8.960938 L 12.921875 11.996094 C 12.921875 12.382812 12.851562 12.753906 12.703125 13.109375 C 12.558594 13.464844 12.351562 13.78125 12.082031 14.054688 C 11.8125 14.328125 11.5 14.535156 11.148438 14.683594 C 10.796875 14.832031 10.429688 14.90625 10.050781 14.90625 C 9.667969 14.90625 9.300781 14.832031 8.949219 14.683594 C 8.597656 14.535156 8.285156 14.328125 8.019531 14.054688 C 7.75 13.78125 7.539062 13.464844 7.394531 13.109375 C 7.25 12.753906 7.175781 12.382812 7.175781 11.996094 Z M 11.367188 17.648438 L 11.539062 17.816406 L 10.050781 19.324219 L 8.5625 17.816406 L 8.734375 17.648438 C 8.84375 17.53125 8.898438 17.394531 8.898438 17.234375 L 8.898438 15.902344 C 9.667969 16.132812 10.433594 16.132812 11.199219 15.902344 L 11.199219 17.234375 C 11.199219 17.394531 11.253906 17.53125 11.367188 17.648438 Z M 7.59375 18.480469 L 9.640625 20.554688 C 9.753906 20.667969 9.890625 20.726562 10.050781 20.726562 C 10.207031 20.726562 10.34375 20.667969 10.457031 20.554688 L 12.503906 18.480469 L 13.152344 18.699219 L 10.90625 21.890625 L 9.191406 21.890625 L 6.945312 18.699219 Z M 11.09375 25.378906 L 11.734375 29.253906 L 10.050781 30.960938 L 8.367188 29.253906 L 9.003906 25.378906 Z M 9.191406 24.214844 L 9.386719 23.050781 L 10.710938 23.050781 L 10.90625 24.214844 Z M 4.878906 35.855469 L 2.578125 35.855469 L 2.578125 30.035156 L 4.878906 30.035156 Z M 17.613281 30.886719 C 17.550781 30.980469 17.519531 31.085938 17.519531 31.199219 L 17.519531 35.273438 C 17.519531 35.433594 17.464844 35.570312 17.351562 35.683594 C 17.238281 35.796875 17.105469 35.855469 16.945312 35.855469 L 6.027344 35.855469 L 6.027344 29.453125 C 6.027344 29.292969 5.96875 29.15625 5.859375 29.042969 C 5.746094 28.929688 5.609375 28.871094 5.453125 28.871094 L 2.578125 28.871094 L 2.578125 23.050781 C 2.574219 22.582031 2.648438 22.125 2.800781 21.683594 C 2.953125 21.238281 3.175781 20.832031 3.464844 20.46875 C 3.757812 20.101562 4.101562 19.796875 4.496094 19.546875 C 4.890625 19.300781 5.3125 19.128906 5.769531 19.03125 L 8.296875 22.609375 L 7.183594 29.359375 C 7.152344 29.558594 7.203125 29.726562 7.34375 29.867188 L 9.640625 32.195312 C 9.753906 32.308594 9.890625 32.363281 10.050781 32.363281 C 10.207031 32.363281 10.34375 32.308594 10.457031 32.195312 L 12.757812 29.867188 C 12.894531 29.726562 12.949219 29.558594 12.917969 29.359375 L 11.800781 22.609375 L 14.332031 19.03125 C 14.785156 19.128906 15.210938 19.300781 15.605469 19.546875 C 16 19.796875 16.34375 20.101562 16.632812 20.46875 C 16.921875 20.832031 17.144531 21.238281 17.296875 21.683594 C 17.449219 22.125 17.523438 22.582031 17.519531 23.050781 L 17.519531 24.796875 C 17.519531 25.082031 17.652344 25.265625 17.917969 25.355469 C 18.183594 25.441406 18.398438 25.371094 18.5625 25.140625 L 22.984375 18.980469 L 25.09375 18.980469 Z M 28.441406 17.816406 L 23.367188 17.816406 C 23.488281 17.46875 23.699219 17.1875 23.996094 16.972656 C 24.296875 16.761719 24.625 16.652344 24.992188 16.652344 L 30.066406 16.652344 C 29.945312 17 29.734375 17.28125 29.433594 17.492188 C 29.136719 17.707031 28.804688 17.816406 28.441406 17.816406 Z M 28.441406 17.816406 "/>
</g>
<g clip-path="url(#clip2)" clip-rule="nonzero">
<path style=" stroke:none;fill-rule:nonzero;fill:rgb(32.159424%,44.309998%,100%);fill-opacity:1;" d="M 30.738281 3.851562 L 23.84375 3.851562 C 23.613281 3.851562 23.394531 3.894531 23.183594 3.984375 C 22.972656 4.074219 22.785156 4.199219 22.625 4.363281 C 22.464844 4.527344 22.339844 4.714844 22.25 4.929688 C 22.164062 5.140625 22.121094 5.363281 22.117188 5.597656 L 22.117188 12.578125 C 22.121094 12.808594 22.164062 13.03125 22.25 13.246094 C 22.339844 13.460938 22.464844 13.648438 22.625 13.8125 C 22.785156 13.976562 22.972656 14.101562 23.183594 14.191406 C 23.394531 14.277344 23.613281 14.324219 23.84375 14.324219 L 30.738281 14.324219 C 30.96875 14.324219 31.1875 14.277344 31.398438 14.191406 C 31.609375 14.101562 31.796875 13.976562 31.957031 13.8125 C 32.117188 13.648438 32.242188 13.460938 32.332031 13.246094 C 32.417969 13.03125 32.460938 12.808594 32.464844 12.578125 L 32.464844 5.597656 C 32.460938 5.363281 32.417969 5.140625 32.332031 4.929688 C 32.242188 4.714844 32.117188 4.527344 31.957031 4.363281 C 31.796875 4.199219 31.609375 4.074219 31.398438 3.984375 C 31.1875 3.894531 30.96875 3.851562 30.738281 3.851562 Z M 26.714844 5.015625 L 27.867188 5.015625 L 27.867188 7.683594 L 27.699219 7.511719 C 27.585938 7.398438 27.449219 7.339844 27.289062 7.339844 C 27.132812 7.339844 26.996094 7.398438 26.882812 7.511719 L 26.714844 7.683594 Z M 31.3125 12.578125 C 31.3125 12.738281 31.257812 12.875 31.144531 12.988281 C 31.035156 13.105469 30.898438 13.160156 30.738281 13.160156 L 23.84375 13.160156 C 23.683594 13.160156 23.546875 13.105469 23.4375 12.988281 C 23.324219 12.875 23.269531 12.738281 23.269531 12.578125 L 23.269531 5.597656 C 23.269531 5.433594 23.324219 5.296875 23.4375 5.183594 C 23.546875 5.070312 23.683594 5.015625 23.84375 5.015625 L 25.566406 5.015625 L 25.566406 9.085938 C 25.566406 9.347656 25.683594 9.527344 25.921875 9.621094 C 26.160156 9.722656 26.367188 9.683594 26.550781 9.5 L 27.289062 8.742188 L 28.03125 9.5 C 28.144531 9.613281 28.28125 9.667969 28.441406 9.667969 C 28.515625 9.671875 28.589844 9.65625 28.660156 9.621094 C 28.898438 9.527344 29.015625 9.347656 29.015625 9.085938 L 29.015625 5.015625 L 30.738281 5.015625 C 30.898438 5.015625 31.035156 5.070312 31.144531 5.183594 C 31.257812 5.296875 31.3125 5.433594 31.3125 5.597656 Z M 31.3125 12.578125 "/>
</g>
<g clip-path="url(#clip3)" clip-rule="nonzero">
<path style=" stroke:none;fill-rule:nonzero;fill:rgb(32.159424%,44.309998%,100%);fill-opacity:1;" d="M 29.015625 23.050781 C 28.5625 23.050781 28.113281 23.097656 27.667969 23.1875 C 27.226562 23.277344 26.792969 23.410156 26.375 23.585938 C 25.957031 23.757812 25.558594 23.976562 25.183594 24.230469 C 24.808594 24.484375 24.457031 24.773438 24.136719 25.097656 C 23.816406 25.421875 23.53125 25.773438 23.28125 26.15625 C 23.027344 26.539062 22.816406 26.941406 22.644531 27.363281 C 22.46875 27.785156 22.339844 28.222656 22.25 28.671875 C 22.164062 29.121094 22.117188 29.578125 22.117188 30.035156 C 22.117188 30.492188 22.164062 30.949219 22.25 31.398438 C 22.339844 31.847656 22.46875 32.285156 22.644531 32.707031 C 22.816406 33.132812 23.027344 33.535156 23.28125 33.914062 C 23.53125 34.296875 23.816406 34.648438 24.136719 34.972656 C 24.457031 35.296875 24.808594 35.585938 25.183594 35.839844 C 25.558594 36.097656 25.957031 36.3125 26.375 36.488281 C 26.792969 36.664062 27.226562 36.792969 27.667969 36.882812 C 28.113281 36.972656 28.5625 37.019531 29.015625 37.019531 C 29.46875 37.019531 29.917969 36.972656 30.359375 36.882812 C 30.804688 36.792969 31.234375 36.664062 31.652344 36.488281 C 32.074219 36.3125 32.46875 36.097656 32.847656 35.839844 C 33.222656 35.585938 33.570312 35.296875 33.890625 34.972656 C 34.210938 34.648438 34.496094 34.296875 34.75 33.914062 C 35 33.535156 35.214844 33.132812 35.386719 32.707031 C 35.558594 32.285156 35.691406 31.847656 35.777344 31.398438 C 35.867188 30.949219 35.910156 30.492188 35.910156 30.035156 C 35.910156 29.578125 35.867188 29.125 35.777344 28.671875 C 35.6875 28.222656 35.558594 27.789062 35.382812 27.363281 C 35.210938 26.941406 35 26.539062 34.746094 26.15625 C 34.496094 25.777344 34.210938 25.425781 33.890625 25.101562 C 33.570312 24.777344 33.222656 24.488281 32.84375 24.230469 C 32.46875 23.976562 32.070312 23.761719 31.652344 23.585938 C 31.234375 23.410156 30.804688 23.277344 30.359375 23.1875 C 29.914062 23.097656 29.46875 23.054688 29.015625 23.050781 Z M 29.015625 35.855469 C 28.636719 35.855469 28.265625 35.816406 27.894531 35.742188 C 27.523438 35.667969 27.164062 35.558594 26.816406 35.410156 C 26.46875 35.265625 26.136719 35.085938 25.820312 34.875 C 25.507812 34.660156 25.21875 34.421875 24.953125 34.148438 C 24.683594 33.878906 24.445312 33.585938 24.238281 33.269531 C 24.027344 32.949219 23.851562 32.617188 23.707031 32.261719 C 23.5625 31.910156 23.453125 31.546875 23.378906 31.171875 C 23.304688 30.796875 23.269531 30.417969 23.269531 30.035156 C 23.269531 29.652344 23.304688 29.273438 23.378906 28.898438 C 23.453125 28.527344 23.5625 28.160156 23.707031 27.808594 C 23.851562 27.457031 24.027344 27.121094 24.238281 26.800781 C 24.445312 26.484375 24.683594 26.191406 24.953125 25.921875 C 25.21875 25.652344 25.507812 25.410156 25.820312 25.195312 C 26.136719 24.984375 26.46875 24.804688 26.816406 24.660156 C 27.164062 24.511719 27.523438 24.402344 27.894531 24.328125 C 28.265625 24.253906 28.636719 24.214844 29.015625 24.214844 C 29.390625 24.214844 29.765625 24.253906 30.136719 24.328125 C 30.507812 24.402344 30.867188 24.511719 31.214844 24.660156 C 31.5625 24.804688 31.894531 24.984375 32.207031 25.195312 C 32.523438 25.410156 32.8125 25.652344 33.078125 25.921875 C 33.34375 26.191406 33.582031 26.484375 33.792969 26.800781 C 34.003906 27.121094 34.179688 27.457031 34.324219 27.808594 C 34.46875 28.160156 34.578125 28.527344 34.652344 28.898438 C 34.726562 29.273438 34.761719 29.652344 34.761719 30.035156 C 34.761719 30.417969 34.722656 30.796875 34.652344 31.171875 C 34.578125 31.542969 34.46875 31.910156 34.324219 32.261719 C 34.179688 32.613281 34 32.949219 33.792969 33.265625 C 33.582031 33.585938 33.34375 33.878906 33.078125 34.148438 C 32.808594 34.417969 32.519531 34.660156 32.207031 34.871094 C 31.894531 35.085938 31.5625 35.261719 31.214844 35.410156 C 30.863281 35.554688 30.503906 35.667969 30.136719 35.742188 C 29.765625 35.816406 29.390625 35.855469 29.015625 35.855469 Z M 29.015625 35.855469 "/>
</g>
<path style=" stroke:none;fill-rule:nonzero;fill:rgb(32.159424%,44.309998%,100%);fill-opacity:1;" d="M 8.324219 9.667969 L 9.476562 9.667969 L 9.476562 10.832031 L 8.324219 10.832031 Z M 8.324219 9.667969 "/>
<path style=" stroke:none;fill-rule:nonzero;fill:rgb(32.159424%,44.309998%,100%);fill-opacity:1;" d="M 10.625 9.667969 L 11.773438 9.667969 L 11.773438 10.832031 L 10.625 10.832031 Z M 10.625 9.667969 "/>
<path style=" stroke:none;fill-rule:nonzero;fill:rgb(32.159424%,44.309998%,100%);fill-opacity:1;" d="M 29.589844 25.378906 L 28.441406 25.378906 L 28.441406 30.035156 C 28.441406 30.195312 28.496094 30.332031 28.609375 30.445312 C 28.722656 30.5625 28.855469 30.617188 29.015625 30.617188 L 32.464844 30.617188 L 32.464844 29.453125 L 29.589844 29.453125 Z M 29.589844 25.378906 "/>
</g>
</svg>
