<?xml version="1.0" encoding="UTF-8"?>
<svg xmlns="http://www.w3.org/2000/svg" xmlns:xlink="http://www.w3.org/1999/xlink" width="37.5pt" height="39.749999pt" viewBox="0 0 37.5 39.749999" version="1.2">
<defs>
<clipPath id="clip1">
  <path d="M 2.160156 6.386719 L 9 6.386719 L 9 15 L 2.160156 15 Z M 2.160156 6.386719 "/>
</clipPath>
<clipPath id="clip2">
  <path d="M 2.160156 16 L 9 16 L 9 24 L 2.160156 24 Z M 2.160156 16 "/>
</clipPath>
<clipPath id="clip3">
  <path d="M 2.160156 25 L 9 25 L 9 33.386719 L 2.160156 33.386719 Z M 2.160156 25 "/>
</clipPath>
<clipPath id="clip4">
  <path d="M 14 9 L 35.160156 9 L 35.160156 12 L 14 12 Z M 14 9 "/>
</clipPath>
<clipPath id="clip5">
  <path d="M 14 18 L 35.160156 18 L 35.160156 21 L 14 21 Z M 14 18 "/>
</clipPath>
<clipPath id="clip6">
  <path d="M 14 28 L 35.160156 28 L 35.160156 31 L 14 31 Z M 14 28 "/>
</clipPath>
</defs>
<g id="surface1">
<g clip-path="url(#clip1)" clip-rule="nonzero">
<path style=" stroke:none;fill-rule:nonzero;fill:rgb(32.159424%,44.309998%,100%);fill-opacity:1;" d="M 4.136719 11.308594 L 3.753906 13.601562 C 3.699219 13.882812 3.804688 14.035156 3.980469 14.035156 C 4.058594 14.035156 4.136719 14.011719 4.238281 13.960938 L 6.261719 12.863281 L 7.234375 13.375 C 7.234375 13.375 7.234375 13.375 7.234375 13.347656 C 6.949219 12.761719 6.617188 12.40625 6.105469 12.125 C 5.980469 12.046875 5.875 11.972656 5.773438 11.894531 L 5.058594 12.277344 L 5.160156 11.488281 C 5.210938 11.128906 5.109375 10.773438 4.851562 10.542969 L 4.265625 9.957031 L 5.082031 9.828125 C 5.414062 9.777344 5.722656 9.550781 5.875 9.242188 L 6.234375 8.480469 L 6.59375 9.242188 C 6.746094 9.550781 7.054688 9.777344 7.386719 9.828125 L 8.101562 9.933594 C 8.332031 9.574219 8.589844 9.269531 8.871094 8.964844 L 7.539062 8.757812 L 6.542969 6.644531 C 6.464844 6.464844 6.335938 6.386719 6.234375 6.386719 C 6.132812 6.386719 6.003906 6.464844 5.925781 6.644531 L 4.929688 8.734375 L 2.675781 9.066406 C 2.292969 9.117188 2.214844 9.398438 2.496094 9.652344 Z M 4.136719 11.308594 "/>
</g>
<path style=" stroke:none;fill-rule:nonzero;fill:rgb(32.159424%,44.309998%,100%);fill-opacity:1;" d="M 11.683594 8.070312 C 11.632812 8.070312 11.582031 8.070312 11.53125 8.097656 C 9.972656 8.683594 8.664062 10.085938 8.101562 11.691406 C 7.769531 11.28125 7.359375 10.925781 6.847656 10.671875 C 6.773438 10.644531 6.695312 10.621094 6.644531 10.621094 C 6.234375 10.621094 5.980469 11.230469 6.414062 11.4375 C 7.105469 11.792969 7.539062 12.304688 7.898438 12.992188 C 7.976562 13.144531 8.128906 13.195312 8.28125 13.195312 C 8.488281 13.195312 8.664062 13.09375 8.691406 12.863281 C 8.945312 11.179688 10.175781 9.5 11.761719 8.910156 C 12.25 8.785156 12.121094 8.070312 11.683594 8.070312 Z M 11.683594 8.070312 "/>
<g clip-path="url(#clip2)" clip-rule="nonzero">
<path style=" stroke:none;fill-rule:nonzero;fill:rgb(32.159424%,44.309998%,100%);fill-opacity:1;" d="M 4.136719 20.996094 L 3.753906 23.292969 C 3.699219 23.570312 3.804688 23.726562 3.980469 23.726562 C 4.058594 23.726562 4.136719 23.699219 4.238281 23.648438 L 6.261719 22.550781 L 7.234375 23.0625 C 7.234375 23.0625 7.234375 23.0625 7.234375 23.035156 C 6.949219 22.449219 6.617188 22.09375 6.105469 21.8125 C 5.980469 21.738281 5.875 21.660156 5.773438 21.582031 L 5.058594 21.964844 L 5.160156 21.175781 C 5.210938 20.820312 5.109375 20.460938 4.851562 20.230469 L 4.265625 19.644531 L 5.082031 19.519531 C 5.414062 19.46875 5.722656 19.238281 5.875 18.933594 L 6.234375 18.167969 L 6.59375 18.933594 C 6.746094 19.238281 7.054688 19.46875 7.386719 19.519531 L 8.101562 19.621094 C 8.332031 19.261719 8.589844 18.957031 8.871094 18.652344 L 7.539062 18.449219 L 6.542969 16.332031 C 6.464844 16.152344 6.335938 16.078125 6.234375 16.078125 C 6.132812 16.078125 6.003906 16.152344 5.925781 16.332031 L 4.929688 18.421875 L 2.675781 18.753906 C 2.292969 18.804688 2.214844 19.085938 2.496094 19.339844 Z M 4.136719 20.996094 "/>
</g>
<path style=" stroke:none;fill-rule:nonzero;fill:rgb(32.159424%,44.309998%,100%);fill-opacity:1;" d="M 11.683594 17.757812 C 11.632812 17.757812 11.582031 17.757812 11.53125 17.785156 C 9.972656 18.371094 8.664062 19.773438 8.101562 21.378906 C 7.769531 20.972656 7.359375 20.613281 6.847656 20.359375 C 6.773438 20.335938 6.695312 20.308594 6.644531 20.308594 C 6.234375 20.308594 5.980469 20.921875 6.414062 21.125 C 7.105469 21.480469 7.539062 21.992188 7.898438 22.679688 C 7.976562 22.832031 8.128906 22.882812 8.28125 22.882812 C 8.488281 22.882812 8.664062 22.78125 8.691406 22.550781 C 8.945312 20.871094 10.175781 19.1875 11.761719 18.601562 C 12.25 18.472656 12.121094 17.757812 11.683594 17.757812 Z M 11.683594 17.757812 "/>
<g clip-path="url(#clip3)" clip-rule="nonzero">
<path style=" stroke:none;fill-rule:nonzero;fill:rgb(32.159424%,44.309998%,100%);fill-opacity:1;" d="M 6.082031 31.550781 C 5.953125 31.476562 5.851562 31.398438 5.75 31.324219 L 5.03125 31.707031 L 5.160156 30.863281 C 5.210938 30.507812 5.109375 30.148438 4.851562 29.921875 L 4.265625 29.335938 L 5.082031 29.207031 C 5.414062 29.15625 5.722656 28.925781 5.875 28.621094 L 6.234375 27.855469 L 6.59375 28.621094 C 6.746094 28.925781 7.054688 29.15625 7.386719 29.207031 L 8.101562 29.308594 C 8.332031 28.953125 8.589844 28.644531 8.871094 28.339844 L 7.539062 28.136719 L 6.542969 26.019531 C 6.464844 25.839844 6.335938 25.765625 6.234375 25.765625 C 6.132812 25.765625 6.003906 25.839844 5.925781 26.019531 L 4.929688 28.109375 L 2.675781 28.441406 C 2.292969 28.492188 2.214844 28.773438 2.496094 29.027344 L 4.136719 30.660156 L 3.753906 32.953125 C 3.699219 33.234375 3.804688 33.386719 3.980469 33.386719 C 4.058594 33.386719 4.136719 33.363281 4.238281 33.3125 L 6.261719 32.214844 L 7.234375 32.726562 C 7.234375 32.726562 7.234375 32.726562 7.234375 32.699219 C 6.925781 32.164062 6.59375 31.808594 6.082031 31.550781 Z M 6.082031 31.550781 "/>
</g>
<path style=" stroke:none;fill-rule:nonzero;fill:rgb(32.159424%,44.309998%,100%);fill-opacity:1;" d="M 11.683594 27.449219 C 11.632812 27.449219 11.582031 27.449219 11.53125 27.472656 C 9.972656 28.058594 8.664062 29.460938 8.101562 31.066406 C 7.769531 30.660156 7.359375 30.304688 6.847656 30.046875 C 6.773438 30.023438 6.695312 29.996094 6.644531 29.996094 C 6.234375 29.996094 5.980469 30.609375 6.414062 30.8125 C 7.105469 31.167969 7.539062 31.679688 7.898438 32.367188 C 7.976562 32.519531 8.128906 32.570312 8.28125 32.570312 C 8.488281 32.570312 8.664062 32.46875 8.691406 32.242188 C 8.945312 30.558594 10.175781 28.875 11.761719 28.289062 C 12.25 28.160156 12.121094 27.449219 11.683594 27.449219 Z M 11.683594 27.449219 "/>
<g clip-path="url(#clip4)" clip-rule="nonzero">
<path style=" stroke:none;fill-rule:nonzero;fill:rgb(32.159424%,44.309998%,100%);fill-opacity:1;" d="M 15.292969 11.230469 L 34.179688 11.230469 C 34.691406 11.230469 35.101562 10.773438 35.101562 10.210938 C 35.101562 9.652344 34.691406 9.191406 34.179688 9.191406 L 15.292969 9.191406 C 14.78125 9.191406 14.371094 9.652344 14.371094 10.210938 C 14.371094 10.773438 14.78125 11.230469 15.292969 11.230469 Z M 15.292969 11.230469 "/>
</g>
<g clip-path="url(#clip5)" clip-rule="nonzero">
<path style=" stroke:none;fill-rule:nonzero;fill:rgb(32.159424%,44.309998%,100%);fill-opacity:1;" d="M 34.179688 18.882812 L 15.292969 18.882812 C 14.78125 18.882812 14.371094 19.339844 14.371094 19.902344 C 14.371094 20.460938 14.78125 20.921875 15.292969 20.921875 L 34.179688 20.921875 C 34.691406 20.921875 35.101562 20.460938 35.101562 19.902344 C 35.101562 19.339844 34.691406 18.882812 34.179688 18.882812 Z M 34.179688 18.882812 "/>
</g>
<g clip-path="url(#clip6)" clip-rule="nonzero">
<path style=" stroke:none;fill-rule:nonzero;fill:rgb(32.159424%,44.309998%,100%);fill-opacity:1;" d="M 34.179688 28.570312 L 15.292969 28.570312 C 14.78125 28.570312 14.371094 29.027344 14.371094 29.589844 C 14.371094 30.148438 14.78125 30.609375 15.292969 30.609375 L 34.179688 30.609375 C 34.691406 30.609375 35.101562 30.148438 35.101562 29.589844 C 35.101562 29.027344 34.691406 28.570312 34.179688 28.570312 Z M 34.179688 28.570312 "/>
</g>
</g>
</svg>
