<?xml version="1.0" encoding="UTF-8"?>
<svg xmlns="http://www.w3.org/2000/svg" xmlns:xlink="http://www.w3.org/1999/xlink" width="37.5pt" height="39.749999pt" viewBox="0 0 37.5 39.749999" version="1.2">
<defs>
<clipPath id="clip1">
  <path d="M 0 5 L 36 5 L 36 38.011719 L 0 38.011719 Z M 0 5 "/>
</clipPath>
<clipPath id="clip2">
  <path d="M 16 1.261719 L 27 1.261719 L 27 12 L 16 12 Z M 16 1.261719 "/>
</clipPath>
<clipPath id="clip3">
  <path d="M 32 17 L 36.75 17 L 36.75 22 L 32 22 Z M 32 17 "/>
</clipPath>
</defs>
<g id="surface1">
<path style=" stroke:none;fill-rule:nonzero;fill:rgb(32.159424%,44.309998%,100%);fill-opacity:1;" d="M 35.027344 18.488281 L 35.027344 16.765625 C 35.027344 13.601562 32.453125 11.023438 29.285156 11.023438 L 26.414062 11.023438 L 26.414062 12.171875 L 29.285156 12.171875 C 31.816406 12.171875 33.878906 14.234375 33.878906 16.765625 L 33.878906 18.488281 Z M 35.027344 18.488281 "/>
<g clip-path="url(#clip1)" clip-rule="nonzero">
<path style=" stroke:none;fill-rule:nonzero;fill:rgb(32.159424%,44.309998%,100%);fill-opacity:1;" d="M 1.722656 27.101562 L 2.871094 27.101562 L 2.871094 29.398438 C 2.871094 32.371094 5.140625 34.824219 8.039062 35.113281 L 8.039062 36.289062 C 8.039062 37.242188 8.8125 38.011719 9.761719 38.011719 L 15.503906 38.011719 C 16.453125 38.011719 17.226562 37.242188 17.226562 36.289062 L 17.226562 35.140625 L 20.671875 35.140625 L 20.671875 36.289062 C 20.671875 37.242188 21.445312 38.011719 22.394531 38.011719 L 28.136719 38.011719 C 29.085938 38.011719 29.859375 37.242188 29.859375 36.289062 L 29.859375 35.113281 C 32.757812 34.824219 35.027344 32.371094 35.027344 29.398438 L 35.027344 23.082031 L 33.878906 23.082031 L 33.878906 29.398438 C 33.878906 31.933594 31.816406 33.992188 29.285156 33.992188 C 28.96875 33.992188 28.710938 34.25 28.710938 34.566406 L 28.710938 36.289062 C 28.710938 36.609375 28.453125 36.863281 28.136719 36.863281 L 22.394531 36.863281 C 22.078125 36.863281 21.820312 36.609375 21.820312 36.289062 L 21.820312 34.566406 C 21.820312 34.25 21.5625 33.992188 21.246094 33.992188 L 16.652344 33.992188 C 16.335938 33.992188 16.078125 34.25 16.078125 34.566406 L 16.078125 36.289062 C 16.078125 36.609375 15.820312 36.863281 15.503906 36.863281 L 9.761719 36.863281 C 9.445312 36.863281 9.1875 36.609375 9.1875 36.289062 L 9.1875 34.566406 C 9.1875 34.25 8.929688 33.992188 8.613281 33.992188 C 6.082031 33.992188 4.019531 31.933594 4.019531 29.398438 L 4.019531 26.527344 C 4.019531 26.210938 3.761719 25.953125 3.445312 25.953125 L 1.722656 25.953125 C 1.40625 25.953125 1.148438 25.699219 1.148438 25.378906 L 1.148438 24.804688 L 2.296875 24.804688 L 2.296875 23.65625 L 1.148438 23.65625 L 1.148438 22.507812 L 2.296875 22.507812 L 2.296875 21.359375 L 1.148438 21.359375 L 1.148438 20.785156 C 1.148438 20.46875 1.40625 20.210938 1.722656 20.210938 L 3.445312 20.210938 C 3.761719 20.210938 4.019531 19.957031 4.019531 19.636719 L 4.019531 16.765625 C 4.019531 14.234375 6.082031 12.171875 8.613281 12.171875 L 9.1875 12.171875 C 9.503906 12.171875 9.761719 11.917969 9.761719 11.597656 L 9.761719 6.429688 C 12.609375 6.429688 14.929688 8.75 14.929688 11.597656 C 14.929688 11.917969 15.1875 12.171875 15.503906 12.171875 L 17.226562 12.171875 L 17.226562 11.023438 L 16.050781 11.023438 C 15.761719 7.808594 13.050781 5.28125 9.761719 5.28125 L 9.1875 5.28125 C 8.871094 5.28125 8.613281 5.539062 8.613281 5.855469 L 8.613281 11.023438 C 5.445312 11.023438 2.871094 13.601562 2.871094 16.765625 L 2.871094 19.0625 L 1.722656 19.0625 C 0.773438 19.0625 0 19.835938 0 20.785156 L 0 25.378906 C 0 26.332031 0.773438 27.101562 1.722656 27.101562 Z M 1.722656 27.101562 "/>
</g>
<path style=" stroke:none;fill-rule:nonzero;fill:rgb(32.159424%,44.309998%,100%);fill-opacity:1;" d="M 27.5625 15.042969 C 27.5625 14.09375 26.789062 13.320312 25.839844 13.320312 L 17.800781 13.320312 C 16.851562 13.320312 16.078125 14.09375 16.078125 15.042969 C 16.078125 15.996094 16.851562 16.765625 17.800781 16.765625 L 25.839844 16.765625 C 26.789062 16.765625 27.5625 15.996094 27.5625 15.042969 Z M 25.839844 15.617188 L 17.800781 15.617188 C 17.484375 15.617188 17.226562 15.363281 17.226562 15.042969 C 17.226562 14.726562 17.484375 14.46875 17.800781 14.46875 L 25.839844 14.46875 C 26.15625 14.46875 26.414062 14.726562 26.414062 15.042969 C 26.414062 15.363281 26.15625 15.617188 25.839844 15.617188 Z M 25.839844 15.617188 "/>
<g clip-path="url(#clip2)" clip-rule="nonzero">
<path style=" stroke:none;fill-rule:nonzero;fill:rgb(32.159424%,44.309998%,100%);fill-opacity:1;" d="M 26.988281 6.429688 C 26.988281 3.582031 24.667969 1.261719 21.820312 1.261719 C 18.972656 1.261719 16.652344 3.582031 16.652344 6.429688 C 16.652344 9.28125 18.972656 11.597656 21.820312 11.597656 C 24.667969 11.597656 26.988281 9.28125 26.988281 6.429688 Z M 17.800781 6.429688 C 17.800781 4.214844 19.605469 2.410156 21.820312 2.410156 C 24.035156 2.410156 25.839844 4.214844 25.839844 6.429688 C 25.839844 8.648438 24.035156 10.449219 21.820312 10.449219 C 19.605469 10.449219 17.800781 8.648438 17.800781 6.429688 Z M 17.800781 6.429688 "/>
</g>
<path style=" stroke:none;fill-rule:nonzero;fill:rgb(32.159424%,44.309998%,100%);fill-opacity:1;" d="M 24.691406 6.429688 C 24.691406 4.847656 23.402344 3.558594 21.820312 3.558594 C 20.238281 3.558594 18.949219 4.847656 18.949219 6.429688 C 18.949219 8.015625 20.238281 9.300781 21.820312 9.300781 C 23.402344 9.300781 24.691406 8.015625 24.691406 6.429688 Z M 20.097656 6.429688 C 20.097656 5.480469 20.871094 4.707031 21.820312 4.707031 C 22.769531 4.707031 23.542969 5.480469 23.542969 6.429688 C 23.542969 7.382812 22.769531 8.152344 21.820312 8.152344 C 20.871094 8.152344 20.097656 7.382812 20.097656 6.429688 Z M 20.097656 6.429688 "/>
<path style=" stroke:none;fill-rule:nonzero;fill:rgb(32.159424%,44.309998%,100%);fill-opacity:1;" d="M 8.039062 16.765625 C 7.089844 16.765625 6.316406 17.539062 6.316406 18.488281 C 6.316406 19.441406 7.089844 20.210938 8.039062 20.210938 C 8.988281 20.210938 9.761719 19.441406 9.761719 18.488281 C 9.761719 17.539062 8.988281 16.765625 8.039062 16.765625 Z M 8.039062 19.0625 C 7.722656 19.0625 7.464844 18.808594 7.464844 18.488281 C 7.464844 18.171875 7.722656 17.914062 8.039062 17.914062 C 8.355469 17.914062 8.613281 18.171875 8.613281 18.488281 C 8.613281 18.808594 8.355469 19.0625 8.039062 19.0625 Z M 8.039062 19.0625 "/>
<g clip-path="url(#clip3)" clip-rule="nonzero">
<path style=" stroke:none;fill-rule:nonzero;fill:rgb(32.159424%,44.309998%,100%);fill-opacity:1;" d="M 32.730469 20.785156 L 32.730469 21.933594 C 34.945312 21.933594 36.75 20.132812 36.75 17.914062 L 35.601562 17.914062 C 35.601562 19.5 34.3125 20.785156 32.730469 20.785156 Z M 32.730469 20.785156 "/>
</g>
<path style=" stroke:none;fill-rule:nonzero;fill:rgb(32.159424%,44.309998%,100%);fill-opacity:1;" d="M 21.246094 22.507812 L 22.394531 22.507812 C 23.027344 22.507812 23.542969 23.023438 23.542969 23.65625 L 24.691406 23.65625 C 24.691406 22.390625 23.660156 21.359375 22.394531 21.359375 L 22.394531 20.210938 L 21.246094 20.210938 L 21.246094 21.359375 C 19.980469 21.359375 18.949219 22.390625 18.949219 23.65625 C 18.949219 24.925781 19.980469 25.953125 21.246094 25.953125 L 22.394531 25.953125 C 23.027344 25.953125 23.542969 26.46875 23.542969 27.101562 C 23.542969 27.738281 23.027344 28.25 22.394531 28.25 L 21.246094 28.25 C 20.613281 28.25 20.097656 27.738281 20.097656 27.101562 L 18.949219 27.101562 C 18.949219 28.371094 19.980469 29.398438 21.246094 29.398438 L 21.246094 30.546875 L 22.394531 30.546875 L 22.394531 29.398438 C 23.660156 29.398438 24.691406 28.371094 24.691406 27.101562 C 24.691406 25.835938 23.660156 24.804688 22.394531 24.804688 L 21.246094 24.804688 C 20.613281 24.804688 20.097656 24.292969 20.097656 23.65625 C 20.097656 23.023438 20.613281 22.507812 21.246094 22.507812 Z M 21.246094 22.507812 "/>
<path style=" stroke:none;fill-rule:nonzero;fill:rgb(32.159424%,44.309998%,100%);fill-opacity:1;" d="M 21.246094 17.914062 L 22.394531 17.914062 L 22.394531 19.0625 L 21.246094 19.0625 Z M 21.246094 17.914062 "/>
<path style=" stroke:none;fill-rule:nonzero;fill:rgb(32.159424%,44.309998%,100%);fill-opacity:1;" d="M 23.542969 17.914062 L 24.691406 17.914062 L 24.691406 19.0625 L 23.542969 19.0625 Z M 23.542969 17.914062 "/>
<path style=" stroke:none;fill-rule:nonzero;fill:rgb(32.159424%,44.309998%,100%);fill-opacity:1;" d="M 18.949219 17.914062 L 20.097656 17.914062 L 20.097656 19.0625 L 18.949219 19.0625 Z M 18.949219 17.914062 "/>
<path style=" stroke:none;fill-rule:nonzero;fill:rgb(32.159424%,44.309998%,100%);fill-opacity:1;" d="M 25.839844 20.210938 L 26.988281 20.210938 L 26.988281 21.359375 L 25.839844 21.359375 Z M 25.839844 20.210938 "/>
<path style=" stroke:none;fill-rule:nonzero;fill:rgb(32.159424%,44.309998%,100%);fill-opacity:1;" d="M 25.839844 22.507812 L 26.988281 22.507812 L 26.988281 23.65625 L 25.839844 23.65625 Z M 25.839844 22.507812 "/>
<path style=" stroke:none;fill-rule:nonzero;fill:rgb(32.159424%,44.309998%,100%);fill-opacity:1;" d="M 25.839844 24.804688 L 26.988281 24.804688 L 26.988281 25.953125 L 25.839844 25.953125 Z M 25.839844 24.804688 "/>
<path style=" stroke:none;fill-rule:nonzero;fill:rgb(32.159424%,44.309998%,100%);fill-opacity:1;" d="M 25.839844 27.101562 L 26.988281 27.101562 L 26.988281 28.25 L 25.839844 28.25 Z M 25.839844 27.101562 "/>
<path style=" stroke:none;fill-rule:nonzero;fill:rgb(32.159424%,44.309998%,100%);fill-opacity:1;" d="M 25.839844 29.398438 L 26.988281 29.398438 L 26.988281 30.546875 L 25.839844 30.546875 Z M 25.839844 29.398438 "/>
<path style=" stroke:none;fill-rule:nonzero;fill:rgb(32.159424%,44.309998%,100%);fill-opacity:1;" d="M 16.652344 20.210938 L 17.800781 20.210938 L 17.800781 21.359375 L 16.652344 21.359375 Z M 16.652344 20.210938 "/>
<path style=" stroke:none;fill-rule:nonzero;fill:rgb(32.159424%,44.309998%,100%);fill-opacity:1;" d="M 16.652344 22.507812 L 17.800781 22.507812 L 17.800781 23.65625 L 16.652344 23.65625 Z M 16.652344 22.507812 "/>
<path style=" stroke:none;fill-rule:nonzero;fill:rgb(32.159424%,44.309998%,100%);fill-opacity:1;" d="M 16.652344 24.804688 L 17.800781 24.804688 L 17.800781 25.953125 L 16.652344 25.953125 Z M 16.652344 24.804688 "/>
<path style=" stroke:none;fill-rule:nonzero;fill:rgb(32.159424%,44.309998%,100%);fill-opacity:1;" d="M 16.652344 27.101562 L 17.800781 27.101562 L 17.800781 28.25 L 16.652344 28.25 Z M 16.652344 27.101562 "/>
<path style=" stroke:none;fill-rule:nonzero;fill:rgb(32.159424%,44.309998%,100%);fill-opacity:1;" d="M 16.652344 29.398438 L 17.800781 29.398438 L 17.800781 30.546875 L 16.652344 30.546875 Z M 16.652344 29.398438 "/>
<path style=" stroke:none;fill-rule:nonzero;fill:rgb(32.159424%,44.309998%,100%);fill-opacity:1;" d="M 23.542969 31.695312 L 24.691406 31.695312 L 24.691406 32.84375 L 23.542969 32.84375 Z M 23.542969 31.695312 "/>
<path style=" stroke:none;fill-rule:nonzero;fill:rgb(32.159424%,44.309998%,100%);fill-opacity:1;" d="M 21.246094 31.695312 L 22.394531 31.695312 L 22.394531 32.84375 L 21.246094 32.84375 Z M 21.246094 31.695312 "/>
<path style=" stroke:none;fill-rule:nonzero;fill:rgb(32.159424%,44.309998%,100%);fill-opacity:1;" d="M 18.949219 31.695312 L 20.097656 31.695312 L 20.097656 32.84375 L 18.949219 32.84375 Z M 18.949219 31.695312 "/>
</g>
</svg>
